HIERARCHY
ROOT Hips
{
	OFFSET 0.00000 0.00000 0.00000
	CHANNELS 6 Xposition Yposition Zposition Zrotation Yrotation Xrotation 
	JOINT LHipJoint
	{
		OFFSET 0 0 0
		CHANNELS 3 Zrotation Yrotation Xrotation
		JOINT LeftUpLeg
		{
			OFFSET 1.85742 -1.74412 1.01653
			CHANNELS 3 Zrotation Yrotation Xrotation
			JOINT LeftLeg
			{
				OFFSET 2.54803 -7.00067 0.00000
				CHANNELS 3 Zrotation Yrotation Xrotation
				JOINT LeftFoot
				{
					OFFSET 2.51202 -6.90173 0.00000
					CHANNELS 3 Zrotation Yrotation Xrotation
					JOINT LeftToeBase
					{
						OFFSET 0.17547 -0.48209 1.64281
						CHANNELS 3 Zrotation Yrotation Xrotation
						End Site
						{
							OFFSET 0.00000 -0.00000 0.86587
						}
					}
				}
			}
		}
	}
	JOINT RHipJoint
	{
		OFFSET 0 0 0
		CHANNELS 3 Zrotation Yrotation Xrotation
		JOINT RightUpLeg
		{
			OFFSET -1.95533 -1.74413 1.01654
			CHANNELS 3 Zrotation Yrotation Xrotation
			JOINT RightLeg
			{
				OFFSET -2.49465 -6.85400 0.00000
				CHANNELS 3 Zrotation Yrotation Xrotation
				JOINT RightFoot
				{
					OFFSET -2.54783 -7.00010 0.00000
					CHANNELS 3 Zrotation Yrotation Xrotation
					JOINT RightToeBase
					{
						OFFSET -0.18513 -0.50864 1.69288
						CHANNELS 3 Zrotation Yrotation Xrotation
						End Site
						{
							OFFSET -0.00000 -0.00000 0.89242
						}
					}
				}
			}
		}
	}
	JOINT LowerBack
	{
		OFFSET 0 0 0
		CHANNELS 3 Zrotation Yrotation Xrotation
		JOINT Spine
		{
			OFFSET 0.02173 2.16290 -0.15998
			CHANNELS 3 Zrotation Yrotation Xrotation
			JOINT Spine1
			{
				OFFSET 0.00940 2.17323 -0.00467
				CHANNELS 3 Zrotation Yrotation Xrotation
				JOINT Neck
				{
					OFFSET 0 0 0
					CHANNELS 3 Zrotation Yrotation Xrotation
					JOINT Neck1
					{
						OFFSET 0.01475 1.85823 0.31113
						CHANNELS 3 Zrotation Yrotation Xrotation
						JOINT Head
						{
							OFFSET 0.01902 1.88783 -0.37187
							CHANNELS 3 Zrotation Yrotation Xrotation
							End Site
							{
								OFFSET 0.00489 1.93211 -0.16169
							}
						}
					}
				}
				JOINT LeftShoulder
				{
					OFFSET 0 0 0
					CHANNELS 3 Zrotation Yrotation Xrotation
					JOINT LeftArm
					{
						OFFSET 3.34199 1.32384 -0.07862
						CHANNELS 3 Zrotation Yrotation Xrotation
						JOINT LeftForeArm
						{
							OFFSET 5.27950 -0.00000 0.00000
							CHANNELS 3 Zrotation Yrotation Xrotation
							JOINT LeftHand
							{
								OFFSET 3.53504 -0.00000 0.00000
								CHANNELS 3 Zrotation Yrotation Xrotation
								JOINT LeftFingerBase
								{
									OFFSET 0 0 0
									CHANNELS 3 Zrotation Yrotation Xrotation
									JOINT LeftHandIndex1
									{
										OFFSET 0.66795 -0.00000 0.00000
										CHANNELS 3 Zrotation Yrotation Xrotation
										End Site
										{
											OFFSET 0.53852 -0.00000 0.00000
										}
									}
								}
								JOINT LThumb
								{
									OFFSET 0 0 0
									CHANNELS 3 Zrotation Yrotation Xrotation
									End Site
									{
										OFFSET 0.54674 -0.00000 0.54674
									}
								}
							}
						}
					}
				}
				JOINT RightShoulder
				{
					OFFSET 0 0 0
					CHANNELS 3 Zrotation Yrotation Xrotation
					JOINT RightArm
					{
						OFFSET -3.16149 1.45719 -0.50507
						CHANNELS 3 Zrotation Yrotation Xrotation
						JOINT RightForeArm
						{
							OFFSET -5.25035 -0.00000 0.00000
							CHANNELS 3 Zrotation Yrotation Xrotation
							JOINT RightHand
							{
								OFFSET -3.58884 -0.00000 0.00000
								CHANNELS 3 Zrotation Yrotation Xrotation
								JOINT RightFingerBase
								{
									OFFSET 0 0 0
									CHANNELS 3 Zrotation Yrotation Xrotation
									JOINT RightHandIndex1
									{
										OFFSET -0.77924 -0.00000 0.00000
										CHANNELS 3 Zrotation Yrotation Xrotation
										End Site
										{
											OFFSET -0.62824 -0.00000 0.00000
										}
									}
								}
								JOINT RThumb
								{
									OFFSET 0 0 0
									CHANNELS 3 Zrotation Yrotation Xrotation
									End Site
									{
										OFFSET -0.63783 -0.00000 0.63783
									}
								}
							}
						}
					}
				}
			}
		}
	}
}
MOTION
Frames: 11
Frame Time: 0.105263
0.00 0.00 0.00 0 0 0 0 0 0 -21 0 0 0 0 0 0 0 0 0 0 0 0 0 0 21 0 0 0 0 0 0 0 0 0 0 0 0 0 0 0 0 0 0 0 0 0 0 -16 0 0 21 0 0 11 0 0 0 -8 0 0 0 0 0 0 0 0 0 0 0 0 0 0 0 0 0 0 0 0 8 0 0 0 0 0 0 0 0 0 0 0 0 0 0 0 0 0
0.00 0.00 0.00 -56.8128 87.6684 -54.3333 0.0000 0.0000 0.0000 -17.0555 -1.0881 -6.9004 2.4794 9.8003 28.3325 0.7917 3.2020 -18.2637 0.2075 -2.9326 -8.0911 0.0000 0.0000 0.0000 24.7387 22.1430 -2.0040 -1.1371 -6.7722 19.0421 -3.6799 -27.7302 -52.8843 -6.6623 -15.0408 47.5854 2.7247 1.1880 -1.1166 0.6777 1.6102 -1.9744 -0.8319 0.7823 -1.3434 0.1974 -2.0477 -17.7032 2.5339 -3.1777 32.5597 0.5229 -0.6777 14.1353 0.0000 0.0000 0.0000 -85.1617 4.6846 29.9833 17.3148 -27.2709 -4.2306 -0.0000 0.0000 -32.3884 35.5772 52.5718 29.5989 -7.1250 0.0000 -0.0000 -65.1193 85.5937 -61.0482 0.0000 0.0000 0.0000 73.2549 23.8095 50.2782 -106.6640 58.9243 -74.3793 0.0000 -0.0000 -17.2248 -32.6443 27.1988 -16.3207 7.1250 -0.0000 -0.0000 -1.4384 1.4077 -1.4738
0.00 0.00 0.00 -53.2633 87.5165 -50.8197 0.0000 0.0000 0.0000 -17.5847 -2.0614 -6.2410 2.3649 9.5879 27.6524 1.0283 3.7706 -20.8660 0.6002 -4.9594 -13.7927 0.0000 0.0000 0.0000 24.4101 22.3614 -2.1985 -1.1361 -6.7693 19.0336 -3.5449 -28.0865 -52.7540 -6.4597 -14.8595 46.8001 2.2131 1.3222 -1.0884 0.6828 1.7859 -1.8576 -0.5397 0.8778 -1.2480 -0.2155 -1.8613 -18.1094 2.5736 -2.7854 32.6900 0.6769 -0.5524 14.2847 -0.0000 -0.0000 0.0000 -87.0136 5.4498 26.3653 16.8558 -26.6672 -4.0224 -0.0000 0.0000 -28.8180 35.2463 51.4884 28.9394 -7.1250 0.0000 -0.0000 -51.6069 85.2046 -47.7442 -0.0000 -0.0000 0.0000 71.8566 20.1028 49.8611 -88.4827 59.9913 -58.6860 0.0000 -0.0000 -15.8777 -31.8493 25.5819 -15.0157 7.1250 -0.0000 -0.0000 -1.2680 -0.5811 -1.2554
0.00 0.00 0.00 -62.7711 87.4729 -59.9101 0.0000 0.0000 0.0000 -18.1129 -4.3410 -5.6947 2.2095 9.2895 26.7051 1.3840 4.9086 -24.4744 1.7640 -8.3562 -23.8012 0.0000 0.0000 0.0000 23.9177 22.1571 -3.0386 -1.0820 -6.6115 18.5695 -3.2744 -28.5560 -52.2999 -6.3567 -14.7653 46.3970 1.8474 1.8480 -1.0802 0.3179 2.4782 -1.7401 -0.7050 1.2261 -1.1135 -0.0775 -1.9317 -18.6229 2.2490 -2.8497 32.2956 0.5003 -0.6241 14.2142 -0.0000 -0.0000 0.0000 -86.2820 5.0720 26.1643 16.1182 -25.6806 -3.6970 -0.0000 0.0000 -27.9534 34.7418 51.4976 28.4901 -7.1250 0.0000 -0.0000 -51.6521 84.9641 -47.5874 -0.0000 -0.0000 0.0000 70.9243 14.0615 48.8801 -62.4764 56.9345 -36.4091 0.0000 -0.0000 -13.8068 -31.4016 23.6963 -13.7841 7.1250 -0.0000 -0.0000 -1.3205 -2.7736 -1.2554
0.00 0.00 0.00 -133.5980 85.8546 -128.1200 0.0000 0.0000 0.0000 -18.7040 -14.0942 -7.4316 1.9861 8.8370 25.2866 0.8425 10.1976 -23.8605 1.3529 -7.3632 -20.7958 0.0000 0.0000 0.0000 21.4136 18.4427 -7.2795 -0.6099 -4.9986 13.9046 -2.3954 -29.4511 -50.2716 -4.3223 -12.5774 37.8064 -1.1790 2.1220 1.2948 0.2475 2.8116 -0.7756 0.8370 1.4190 -1.5888 -1.1375 -2.5855 -19.7608 0.3521 -3.0393 27.1717 -0.1347 -1.2754 12.2867 0.0000 -0.0000 0.0000 -84.9224 6.4478 21.2571 19.0010 -29.4199 -5.0313 -0.0000 0.0000 -26.3585 31.9285 52.0775 26.1768 -7.1250 0.0000 -0.0000 -56.9191 83.8138 -51.5641 0.0000 -0.0000 0.0000 70.6613 -15.3201 52.3569 -20.7184 31.4982 -5.9021 0.0000 0.0000 3.1346 1.3308 19.8331 0.4516 7.1250 -0.0000 -0.0000 18.9398 -10.9216 15.9273
0.00 0.00 0.00 -106.2210 86.5722 -99.9015 0.0000 0.0000 0.0000 -18.4724 -12.0195 -10.2846 1.5605 7.8834 22.3605 0.5390 9.9208 -20.8255 1.0432 -6.4956 -18.2295 0.0000 0.0000 0.0000 19.9625 19.3171 -8.7495 -0.2854 -3.4360 9.4950 0.6194 -32.9459 -43.3628 -4.1836 -12.4008 37.1649 -3.3329 0.5818 5.8320 0.3485 0.5797 0.4993 2.1835 0.3348 -2.7923 0.4746 -1.2135 -18.6539 -0.2554 -1.5871 22.6424 -0.3822 -0.6448 10.3219 -0.0000 0.0000 0.0000 -84.0165 6.7695 17.3083 15.0654 -24.2371 -3.2527 -0.0000 0.0000 -25.8651 36.3421 52.6696 30.3275 -7.1250 0.0000 -0.0000 -67.9252 85.9465 -64.1112 -0.0000 0.0000 0.0000 72.8423 -17.4176 33.7252 -15.6347 25.0228 -3.4900 0.0000 0.0000 7.3147 1.3376 18.5080 0.4247 7.1250 -0.0000 -0.0000 19.0388 -12.1755 15.4970
0.00 0.00 0.00 -65.5197 85.5403 -58.5592 0.0000 0.0000 0.0000 -17.6357 -11.0840 -11.7546 1.4937 7.7206 21.8687 0.4526 10.9133 -20.9652 0.6876 -5.3015 -14.7705 0.0000 0.0000 0.0000 21.8773 8.5489 -16.1106 -0.3220 -3.6476 10.0874 2.8169 -29.3407 -20.9461 -0.4098 -4.1097 11.3854 -3.7524 0.6440 7.0799 0.4625 0.5892 0.4682 2.5288 0.3605 -3.5301 1.1584 -0.7705 -18.8868 -0.3749 -1.1778 21.8725 -0.4804 -0.4304 10.0849 -0.0000 -0.0000 0.0000 -83.9514 5.9851 16.3002 13.1206 -21.4637 -2.4973 -0.0000 0.0000 -25.3191 36.1971 53.8096 30.5667 -7.1250 0.0000 -0.0000 -83.1245 85.7692 -78.8942 -0.0000 -0.0000 0.0000 73.6247 -14.7649 26.5790 -15.3939 24.6920 -3.3888 0.0000 0.0000 6.3014 -6.0572 17.2564 -1.8030 7.1250 -0.0000 -0.0000 14.4010 -13.0199 11.1523
0.00 0.00 0.00 -143.4660 87.5557 -137.9790 0.0000 0.0000 0.0000 -10.2662 -1.7909 -19.0514 4.0421 12.2162 36.5010 0.2555 1.4594 -10.1946 2.2560 -9.3801 -26.9918 0.0000 0.0000 0.0000 27.9969 12.6621 5.1143 -0.0670 -1.6700 4.5944 2.4186 -30.9557 -30.0184 -2.5575 -9.9417 28.7880 2.6865 0.3945 3.6409 1.1047 0.7194 -1.6829 -0.4171 0.3117 -3.7591 -3.7855 -4.9239 -23.2480 3.6395 -6.5385 31.9461 0.9347 -2.4769 15.3781 -0.0000 0.0000 0.0000 -87.2094 3.3113 26.6510 20.0414 -30.6922 -5.5525 -0.0000 0.0000 -28.4708 32.4018 52.6893 26.7840 -7.1250 0.0000 -0.0000 -62.8481 84.1650 -57.5155 -0.0000 0.0000 0.0000 80.1570 -6.2143 26.4099 -20.8890 31.6986 -5.9915 0.0000 -0.0000 -0.2810 -16.0206 18.2812 -5.1467 7.1250 -0.0000 -0.0000 7.8897 -11.1503 6.2764
0.00 0.00 0.00 -11.9361 78.2210 -10.0853 0.0000 0.0000 0.0000 -14.1498 -10.8504 -10.5082 0.6762 5.2582 14.6465 -0.0839 7.0106 -7.6466 1.6881 -8.1836 -23.2732 0.0000 0.0000 0.0000 18.4045 -2.9577 4.5630 -1.3399 -7.3290 20.6939 0.3544 -10.8863 -7.1488 -1.2468 7.0796 -19.9514 -0.0145 0.6748 3.8273 0.5752 0.9153 -0.4035 0.5440 0.4612 -2.5695 -4.4231 -7.3424 -17.5264 3.7760 -10.0972 39.3671 0.6077 -3.7705 18.1000 -0.0000 -0.0000 0.0000 -86.6838 4.8692 23.5222 18.0742 -28.2520 -4.5843 -0.0000 0.0000 -26.6734 33.7771 53.0340 28.1208 -7.1250 0.0000 -0.0000 -67.8615 84.8200 -62.9654 -0.0000 -0.0000 0.0000 82.8911 -8.6261 21.2357 -23.0660 34.1610 -7.1753 0.0000 -0.0000 -9.8406 -21.4906 16.5676 -6.4057 7.1250 -0.0000 -0.0000 4.1954 -12.2852 3.2155
0.00 0.00 0.00 -8.6471 76.2994 -6.6253 0.0000 0.0000 0.0000 -15.9571 -10.0333 -6.6579 0.3294 3.6888 10.2027 -0.2604 9.8029 -7.7390 1.7891 -8.4121 -23.9730 0.0000 0.0000 0.0000 15.2728 -1.2664 -5.7422 -4.2750 -12.5176 37.5886 0.0765 -4.9080 -1.4931 -0.3511 3.8071 -10.5346 -1.5902 0.3871 4.2439 0.7009 0.4548 -0.3777 1.5831 0.2563 -2.7864 -4.5093 -7.1072 -17.4076 3.6799 -9.6981 39.6065 0.6641 -3.6471 18.1800 -0.0000 -0.0000 0.0000 -87.2446 4.7084 25.1056 19.5576 -30.1056 -5.3076 -0.0000 0.0000 -28.5603 34.3752 53.1722 28.7036 -7.1250 0.0000 -0.0000 -70.3866 85.0873 -65.6777 -0.0000 -0.0000 0.0000 82.0033 -8.6919 20.7320 -25.0208 36.2253 -8.3022 0.0000 -0.0000 -15.6205 -21.7570 14.7139 -5.7882 7.1250 -0.0000 -0.0000 3.9113 -14.2181 2.8376
0.00 0.00 0.00 -8.9446 78.7526 -4.2375 0.0000 0.0000 0.0000 -17.0331 -13.3043 -8.6077 1.0609 6.5485 18.3846 0.2604 7.8243 -15.4954 1.6578 -8.1137 -23.0600 0.0000 0.0000 0.0000 14.5775 14.1643 -7.8778 -0.3532 -3.8185 10.5666 0.1120 -6.4047 -4.9313 -1.0846 6.6190 -18.5913 -4.3997 -0.8967 3.3798 1.4782 -1.3596 -1.5917 4.0851 -0.5593 -3.4044 -6.9007 -9.0797 -15.2674 5.8272 -12.9180 40.3989 1.4778 -4.9885 18.8307 -0.0000 -0.0000 0.0000 -86.4555 2.1765 19.0502 22.6600 -33.7150 -6.9487 -0.0000 0.0000 -30.0344 35.3333 53.4343 29.6563 -7.1250 0.0000 -0.0000 -75.6461 85.4850 -71.2167 -0.0000 -0.0000 0.0000 82.5685 -4.8060 18.5012 -33.3416 43.5910 -13.6570 0.0000 -0.0000 -25.2976 -25.6833 12.2872 -5.8435 7.1250 -0.0000 -0.0000 1.0758 -16.3948 0.7285
